<svg width="226" height="226" viewBox="0 0 226 226" fill="none" xmlns="http://www.w3.org/2000/svg">
<path d="M226 112.955C226 122.709 216.781 131.118 214.377 140.118C211.884 149.424 215.597 161.293 210.79 169.451C205.983 177.609 193.822 180.423 187.114 187.129C180.405 193.835 177.697 206.009 169.428 210.796C161.16 215.583 149.393 211.8 140.084 214.382C131.116 216.784 122.668 226 112.91 226C103.153 226 94.7406 216.784 85.7365 214.382C76.4275 211.89 64.5535 215.601 56.3924 210.796C48.2313 205.991 45.4152 193.835 38.707 187.129C31.9987 180.423 19.8198 177.716 15.0308 169.451C10.2417 161.185 14.116 149.424 11.6229 140.118C9.21937 131.118 0 122.709 0 112.955C0 103.202 9.21937 94.7927 11.6229 85.7921C14.116 76.4868 10.4032 64.5458 15.1205 56.4597C19.8378 48.3735 32.0884 45.4869 38.7967 38.7813C45.5049 32.0757 48.2133 19.9016 56.4821 15.1145C64.7508 10.3273 76.5171 14.1104 85.8262 11.6182C94.8303 9.21571 103.243 0 113 0C122.757 0 131.17 9.21571 140.174 11.6182C149.483 14.1104 161.429 10.399 169.518 15.1145C177.607 19.8299 180.495 32.0757 187.203 38.7813C193.912 45.4869 206.09 48.1942 210.88 56.4597C215.669 64.7251 211.884 76.4868 214.467 85.7921C216.781 94.7927 226 103.202 226 112.955Z" fill="#E2F4FA"/>
<path d="M176 113C176 118.44 170.86 123.13 169.52 128.15C168.13 133.34 170.2 139.96 167.52 144.51C164.84 149.06 158.06 150.63 154.32 154.37C150.58 158.11 149.07 164.9 144.46 167.57C139.85 170.24 133.29 168.13 128.1 169.57C123.1 170.91 118.39 176.05 112.95 176.05C107.51 176.05 102.82 170.91 97.8 169.57C92.61 168.18 85.99 170.25 81.44 167.57C76.89 164.89 75.32 158.11 71.58 154.37C67.84 150.63 61.05 149.12 58.38 144.51C55.71 139.9 57.87 133.34 56.48 128.15C55.14 123.13 50 118.44 50 113C50 107.56 55.14 102.87 56.48 97.85C57.87 92.66 55.8 86 58.43 81.49C61.06 76.98 67.89 75.37 71.63 71.63C75.37 67.89 76.88 61.1 81.49 58.43C86.1 55.76 92.66 57.87 97.85 56.48C102.87 55.14 107.56 50 113 50C118.44 50 123.13 55.14 128.15 56.48C133.34 57.87 140 55.8 144.51 58.43C149.02 61.06 150.63 67.89 154.37 71.63C158.11 75.37 164.9 76.88 167.57 81.49C170.24 86.1 168.13 92.66 169.57 97.85C170.86 102.87 176 107.56 176 113Z" fill="#009CC7"/>
<path d="M52.0003 106.55C52.0457 112.513 52.969 118.436 54.7403 124.13C50.6903 116.87 47.9103 114.06 52.0003 106.55Z" fill="#009CC7"/>
<path d="M169.21 129.71C168.49 134.61 169.94 140.4 167.57 144.51C164.9 149.12 158.11 150.63 154.37 154.37C150.63 158.11 149.12 164.9 144.51 167.57C139.9 170.24 133.34 168.13 128.15 169.57C123.15 170.91 118.44 176.05 113 176.05C107.56 176.05 102.87 170.91 97.85 169.57C92.66 168.18 86.04 170.25 81.49 167.57C76.94 164.89 75.37 158.11 71.63 154.37C67.89 150.63 61.1 149.12 58.43 144.51C56.06 140.4 57.51 134.61 56.79 129.71C61.4512 140.768 69.2703 150.205 79.2685 156.84C89.2668 163.476 101 167.015 113 167.015C125 167.015 136.733 163.476 146.732 156.84C156.73 150.205 164.549 140.768 169.21 129.71Z" fill="#009CC7"/>
<path d="M171.261 124.13C173.032 118.436 173.955 112.513 174.001 106.55C178.071 114 175.331 116.82 171.261 124.13Z" fill="#009CC7"/>
<path d="M56.79 129.71C56.0302 127.888 55.3627 126.029 54.79 124.14C55.8178 125.846 56.4976 127.74 56.79 129.71Z" fill="#009CC7"/>
<path d="M171.26 124.14C170.671 126.03 169.987 127.889 169.21 129.71C169.518 127.736 170.215 125.843 171.26 124.14Z" fill="#009CC7"/>
<path d="M113 159C138.405 159 159 138.405 159 113C159 87.5949 138.405 67 113 67C87.5949 67 67 87.5949 67 113C67 138.405 87.5949 159 113 159Z" fill="#F3F4F5"/>
<path d="M113 67C119.293 67.0003 125.52 68.2919 131.294 70.795C137.068 73.2981 142.267 76.9594 146.569 81.5524C150.872 86.1454 154.186 91.5723 156.307 97.4975C158.428 103.423 159.31 109.72 158.9 116C158.13 104.35 152.96 93.4288 144.437 85.4499C135.913 77.471 124.675 73.0315 113 73.0315C101.325 73.0315 90.0863 77.471 81.563 85.4499C73.0397 93.4288 67.8693 104.35 67.0999 116C66.6895 109.72 67.572 103.423 69.6929 97.4975C71.8138 91.5723 75.128 86.1454 79.4304 81.5524C83.7328 76.9594 88.9319 73.2981 94.7061 70.795C100.48 68.2919 106.707 67.0003 113 67Z" fill="#DDE1E8"/>
<path d="M105 134.66L86.1699 115.83L91.8299 110.17L105 123.34L134.17 94.17L139.83 99.83L105 134.66Z" fill="#009CC7"/>
</svg>
