<svg width="19" height="20" viewBox="0 0 19 20" fill="none" xmlns="http://www.w3.org/2000/svg">
<path d="M18.1665 7V18.993C18.1674 19.1243 18.1425 19.2545 18.0931 19.3762C18.0437 19.4979 17.9708 19.6087 17.8786 19.7022C17.7864 19.7957 17.6766 19.8701 17.5557 19.9212C17.4347 19.9723 17.3048 19.9991 17.1735 20H1.1595C0.896317 20 0.643895 19.8955 0.4577 19.7095C0.271505 19.5235 0.166769 19.2712 0.166504 19.008V0.992C0.166504 0.455 0.613504 0 1.1645 0H11.1665V6C11.1665 6.26522 11.2719 6.51957 11.4594 6.70711C11.6469 6.89464 11.9013 7 12.1665 7H18.1665ZM18.1665 5H13.1665V0.00300002L18.1665 5ZM5.1665 5V7H8.1665V5H5.1665ZM5.1665 9V11H13.1665V9H5.1665ZM5.1665 13V15H13.1665V13H5.1665Z" fill="#999999"/>
</svg>
