<svg width="21" height="20" viewBox="0 0 21 20" fill="none" xmlns="http://www.w3.org/2000/svg">
<path d="M3.83356 2.54501C4.86029 1.62529 6.06625 0.928001 7.37556 0.497009C7.74994 0.966033 8.22522 1.34464 8.76608 1.60468C9.30693 1.86472 9.89944 1.9995 10.4996 1.99901C11.0997 1.9995 11.6922 1.86472 12.233 1.60468C12.7739 1.34464 13.2492 0.966033 13.6236 0.497009C14.9329 0.928001 16.1388 1.62529 17.1656 2.54501C16.9471 3.10346 16.8572 3.70395 16.9025 4.3019C16.9479 4.89985 17.1273 5.47991 17.4276 5.99901C17.7272 6.5191 18.1402 6.96496 18.6358 7.30343C19.1315 7.6419 19.6971 7.86427 20.2906 7.95401C20.5711 9.30291 20.5711 10.6951 20.2906 12.044C19.1306 12.222 18.0606 12.904 17.4276 13.999C17.1272 14.5182 16.9476 15.0985 16.9023 15.6966C16.8569 16.2947 16.9469 16.8954 17.1656 17.454C16.1387 18.3734 14.9328 19.0703 13.6236 19.501C13.2491 19.0322 12.7738 18.6538 12.2329 18.3939C11.6921 18.134 11.0996 17.9994 10.4996 18C9.89944 17.9995 9.30693 18.1343 8.76608 18.3943C8.22522 18.6544 7.74994 19.033 7.37556 19.502C6.06633 19.0713 4.86038 18.3744 3.83356 17.455C4.05221 16.8964 4.1422 16.2958 4.09684 15.6976C4.05148 15.0995 3.87194 14.5192 3.57156 14C3.27185 13.4801 2.85881 13.0344 2.36314 12.6961C1.86748 12.3579 1.30194 12.1356 0.708561 12.046C0.427876 10.6968 0.427876 9.30423 0.708561 7.95501C1.30203 7.86527 1.86763 7.6429 2.3633 7.30443C2.85897 6.96596 3.27196 6.5201 3.57156 6.00001C3.87179 5.48091 4.05124 4.90085 4.0966 4.3029C4.14196 3.70495 4.05205 3.10446 3.83356 2.54601V2.54501ZM11.9996 12.597C12.3435 12.4015 12.6454 12.1398 12.8878 11.8271C13.1302 11.5144 13.3083 11.1569 13.412 10.7751C13.5157 10.3933 13.5428 9.99472 13.4918 9.60238C13.4408 9.21004 13.3127 8.83166 13.1149 8.48903C12.917 8.14639 12.6534 7.84628 12.3391 7.60595C12.0248 7.36563 11.6661 7.18984 11.2836 7.08871C10.9011 6.98759 10.5024 6.96312 10.1104 7.01672C9.71839 7.07031 9.34087 7.20092 8.99956 7.40101C8.31614 7.80166 7.81894 8.45637 7.61645 9.22225C7.41396 9.98814 7.52263 10.803 7.91874 11.4891C8.31485 12.1752 8.96624 12.6767 9.73077 12.8843C10.4953 13.0918 11.3109 12.9886 11.9996 12.597V12.597Z" fill="#999999"/>
</svg>
