<svg width="21" height="18" viewBox="0 0 21 18" fill="none" xmlns="http://www.w3.org/2000/svg">
<path fill-rule="evenodd" clip-rule="evenodd" d="M18.833 0H2.83301C1.73301 0 0.833008 0.9 0.833008 2V16C0.833008 17.1 1.73301 18 2.83301 18H18.833C19.933 18 20.833 17.1 20.833 16V2C20.833 0.9 19.933 0 18.833 0ZM8.83301 14H3.83301V12H8.83301V14ZM8.83301 10H3.83301V8H8.83301V10ZM8.83301 6H3.83301V4H8.83301V6ZM13.653 12L10.833 9.16L12.243 7.75L13.653 9.17L16.823 6L18.243 7.42L13.653 12Z" fill="#999999"/>
</svg>
